<mxfile host="app.diagrams.net" modified="2021-01-21T06:10:12.344Z" agent="5.0 (X11; Linux x86_64) AppleWebKit/537.36 (KHTML, like Gecko) Chrome/88.0.4324.96 Safari/537.36" etag="2aRzlLZLlSIPzRFnj5_r" version="14.2.6" type="github">
  <diagram id="0tBDLa9PL7fGlPBLeg3F" name="Page-1">
    <mxGraphModel dx="804" dy="494" grid="1" gridSize="10" guides="1" tooltips="1" connect="1" arrows="1" fold="1" page="1" pageScale="1" pageWidth="850" pageHeight="1100" math="0" shadow="0">
      <root>
        <mxCell id="0" />
        <mxCell id="1" parent="0" />
      </root>
    </mxGraphModel>
  </diagram>
</mxfile>
